<svg fill="#faf9fc" width="64px" height="64px" viewBox="-9.6 -9.6 43.20 43.20" id="link-alt-2" data-name="Line Color"
  xmlns="http://www.w3.org/2000/svg" class="icon line-color">
  <g id="SVGRepo_bgCarrier" stroke-width="0">
    <rect x="-9.6" y="-9.6" width="43.20" height="43.20" rx="6.48" fill="#faf9fc" strokewidth="0"></rect>
  </g>
  <g id="SVGRepo_tracerCarrier" stroke-linecap="round" stroke-linejoin="round"></g>
  <g id="SVGRepo_iconCarrier">
    <path id="secondary" d="M14.5,9.5a3.54,3.54,0,0,1,0,5l-5,5a3.54,3.54,0,0,1-5,0h0a3.54,3.54,0,0,1,0-5"
      style="fill: none; stroke: #000000; stroke-linecap: round; stroke-linejoin: round; stroke-width: 2;"></path>
    <path id="primary" d="M19.5,9.5a3.54,3.54,0,0,0,0-5h0a3.54,3.54,0,0,0-5,0l-5,5a3.54,3.54,0,0,0,0,5h0"
      style="fill: none; stroke: #4c1d95; stroke-linecap: round; stroke-linejoin: round; stroke-width: 2;"></path>
  </g>
</svg>